<?xml version="1.0" encoding="UTF-8" standalone="no"?>
<!-- Created with Inkscape (http://www.inkscape.org/) -->

<svg
   version="1.1"
   id="svg2"
   width="578.49023"
   height="110.99332"
   viewBox="0 0 578.49025 110.99332"
   sodipodi:docname="Deplojal BrandBook.ai"
   xmlns:inkscape="http://www.inkscape.org/namespaces/inkscape"
   xmlns:sodipodi="http://sodipodi.sourceforge.net/DTD/sodipodi-0.dtd"
   xmlns="http://www.w3.org/2000/svg"
   xmlns:svg="http://www.w3.org/2000/svg">
  <defs
     id="defs6">
    <clipPath
       clipPathUnits="userSpaceOnUse"
       id="clipPath494">
      <path
         d="M 0,576 H 1007.857 V 0 H 0 Z"
         id="path492" />
    </clipPath>
  </defs>
  <sodipodi:namedview
     id="namedview4"
     pagecolor="#ffffff"
     bordercolor="#000000"
     borderopacity="0.25"
     inkscape:showpageshadow="2"
     inkscape:pageopacity="0.0"
     inkscape:pagecheckerboard="0"
     inkscape:deskcolor="#d1d1d1"
     showgrid="false" />
  <g
     id="g456"
     inkscape:groupmode="layer"
     inkscape:label="Page 8"
     transform="matrix(1.3333333,0,0,-1.3333333,-364.63742,323.43332)">
    <path
       d="M 0,0 H 1007.857 V 576 H 0 Z"
       style="fill:transparent;fill-opacity:1;fill-rule:nonzero;stroke:none"
       id="path458" />
    <g
       id="g480"
       transform="translate(254.517,181.1602)">
      <path
         d="M 0,0 V -69.205 H 471.791 V 2.11"
         style="fill:none;stroke:#ffffff;stroke-width:1;stroke-linecap:butt;stroke-linejoin:miter;stroke-miterlimit:10;stroke-dasharray:none;stroke-opacity:1"
         id="path482" />
    </g>
    <g
       id="g488">
      <g
         id="g490"
         clip-path="url(#clipPath494)">
        <g
           id="g496"
           transform="translate(387.7716,215.6998)">
          <path
             d="m 0,0 v -29.258 h 9.621 c 6.994,0 11.654,2.933 13.983,8.797 0.711,2.018 1.06,4.008 1.06,5.973 0,5.729 -2.486,10.076 -7.462,13.036 C 14.899,-0.483 12.736,0 10.724,0 Z m 3.38,13.709 h 2.705 c 8.146,0 13.748,-0.941 16.814,-2.824 C 28.71,8.21 33.138,3.46 36.172,-3.373 c 1.367,-3.825 2.046,-7.57 2.046,-11.234 0,-10.319 -4.332,-18.411 -13,-24.276 -4.508,-2.621 -9.653,-3.928 -15.442,-3.928 H -13.552 V 13.59 c 7.306,0.082 12.95,0.119 16.932,0.119"
             style="fill:#ffffff;fill-opacity:1;fill-rule:nonzero;stroke:none"
             id="path498" />
        </g>
        <g
           id="g500"
           transform="translate(428.7383,229.2158)">
          <path
             d="M 0,0 H 42.498 V -13.672 H 13.552 v -7.736 H 35.747 V -34.919 H 13.552 v -7.855 H 42.498 V -56.327 H 0 Z"
             style="fill:#ffffff;fill-opacity:1;fill-rule:nonzero;stroke:none"
             id="path502" />
        </g>
        <g
           id="g504"
           transform="translate(487.502,215.6626)">
          <path
             d="m 0,0 v -12.961 h 11.745 c 2.905,0 4.789,1.087 5.655,3.26 0.446,0.996 0.667,1.991 0.667,2.986 v 0.511 c 0,2.615 -1.076,4.514 -3.223,5.693 C 13.848,-0.167 12.815,0 11.745,0 Z m -13.516,13.515 h 25.653 c 8.485,0 14.56,-4.137 18.224,-12.412 0.813,-2.567 1.215,-4.859 1.215,-6.875 V -7.15 c 0,-5.574 -2.157,-10.433 -6.478,-14.571 -3.642,-3.142 -7.962,-4.712 -12.961,-4.712 H 0 v -16.341 h -13.516 z"
             style="fill:#ffffff;fill-opacity:1;fill-rule:nonzero;stroke:none"
             id="path506" />
        </g>
        <g
           id="g508"
           transform="translate(541.1542,229.1772)">
          <path
             d="m 0,0 h 13.515 v -0.28 c 0,-8.064 -8.237,-22.23 -24.706,-42.498 h 24.706 v -13.511 h -42.617 v 13.511 C -11.115,-21.801 -1.41,-7.542 0,0"
             style="fill:#ffffff;fill-opacity:1;fill-rule:nonzero;stroke:none"
             id="path510" />
        </g>
        <g
           id="g512"
           transform="translate(567.3558,200.9744)">
          <path
             d="m 0,0 c 0,-3.982 1.297,-7.516 3.891,-10.604 2.797,-3.223 6.139,-4.832 10.012,-4.832 4.219,0 7.936,2.195 11.159,6.596 1.646,2.647 2.47,5.445 2.47,8.403 v 0.555 c 0,5.94 -2.616,10.577 -7.856,13.903 -2.011,0.941 -3.938,1.452 -5.773,1.534 C 9.034,15.555 4.95,12.88 1.647,7.538 0.549,4.998 0,2.486 0,0 m 12.961,29.85 h 1.771 c 6.724,0 13.009,-2.895 18.852,-8.679 C 39.11,14.962 41.87,8.275 41.87,1.098 v -2.201 c 0,-8.194 -3.497,-15.631 -10.487,-22.307 -3.901,-2.932 -7.387,-4.767 -10.449,-5.498 -2.695,-0.657 -5.078,-0.985 -7.149,-0.985 -9.216,0 -16.927,4.32 -23.136,12.961 -3.297,5.289 -4.95,10.788 -4.95,16.495 v 0.985 c 0,8.77 3.487,16.378 10.448,22.824 5.371,4.32 10.977,6.478 16.814,6.478"
             style="fill:#ffffff;fill-opacity:1;fill-rule:nonzero;stroke:none"
             id="path514" />
        </g>
        <g
           id="g516"
           transform="translate(639.1189,229.2158)">
          <path
             d="m 0,0 h 13.553 v -37.474 c 0,-5.918 -1.131,-10.158 -3.378,-12.725 -4.166,-5.288 -9.664,-7.935 -16.497,-7.935 h -1.065 c -5.994,0 -11.1,2.146 -15.319,6.44 -2.958,3.351 -4.438,7.204 -4.438,11.551 v 5.106 h 13.435 v -4.557 c 0,-2.254 1.167,-3.782 3.497,-4.594 1.152,-0.345 2.265,-0.511 3.336,-0.511 3.879,0 6.171,1.387 6.876,4.163 z"
             style="fill:#ffffff;fill-opacity:1;fill-rule:nonzero;stroke:none"
             id="path518" />
        </g>
        <g
           id="g520"
           transform="translate(679.1422,212.6764)">
          <path
             d="M 0,0 C -3.325,-9.556 -4.987,-14.451 -4.987,-14.688 H 5.15 v 0.118 L 0.118,0 Z M -8.759,16.34 H 8.642 c 0.236,0 1.403,-3.283 3.497,-9.857 0.366,-0.705 5.724,-16.13 16.065,-46.271 H 13.909 L 9.863,-28.199 H -9.582 c -0.156,-0.026 -0.876,-1.914 -2.163,-5.659 -1.253,-3.955 -1.975,-5.93 -2.157,-5.93 h -14.182 c 12.255,35.403 18.696,54.115 19.325,56.128"
             style="fill:#ffffff;fill-opacity:1;fill-rule:nonzero;stroke:none"
             id="path522"
             />
        </g>
        <g
           id="g524"
           transform="translate(273.4783,159.33)">
          <path
             d="M 0,0 V 83.245 L 67.652,49.296 V 26.407 L 17.352,0 58.097,38.481 12.826,61.616 Z"
             style="fill:#ffffff;fill-opacity:1;fill-rule:nonzero;stroke:none"
             id="path526" />
        </g>
        <g
           id="g528"
           transform="translate(423.2,297.2)">
          <path
             d="M 0,0 V 164.639 L 133.8,97.496 V 52.226 L 34.318,0 114.903,76.106 25.367,121.863 Z"
             style="fill:#ffffff;fill-opacity:1;fill-rule:nonzero;stroke:none"
             id="path530" />
        </g>
      </g>
    </g>
  </g>
</svg>
